<svg width="19" height="18" viewBox="0 0 19 18" fill="none" xmlns="http://www.w3.org/2000/svg">
<path d="M12.8755 0C11.9158 0.0663746 10.7942 0.680621 10.1406 1.48049C9.54436 2.20611 9.05386 3.28386 9.24511 4.33122C10.2936 4.36385 11.377 3.73498 12.0047 2.92161C12.592 2.16449 13.0363 1.09349 12.8755 0Z" fill="white"/>
<path d="M16.6665 6.0368C15.7451 4.88143 14.4503 4.21094 13.2274 4.21094C11.613 4.21094 10.9302 4.98381 9.80853 4.98381C8.65204 4.98381 7.77342 4.21319 6.3773 4.21319C5.00593 4.21319 3.54569 5.05131 2.61982 6.48455C1.31821 8.50279 1.54095 12.2974 3.65032 15.5295C4.40519 16.686 5.41318 17.9865 6.73167 17.9977C7.90504 18.009 8.23579 17.2451 9.82541 17.2372C11.415 17.2282 11.7165 18.0079 12.8876 17.9955C14.2073 17.9854 15.2704 16.5442 16.0252 15.3877C16.5664 14.5586 16.7677 14.1413 17.1874 13.2053C14.1353 12.0431 13.6459 7.70292 16.6665 6.0368Z" fill="white"/>
</svg>
