<svg width="18" height="18" viewBox="0 0 18 18" fill="none" xmlns="http://www.w3.org/2000/svg">
<path d="M13.1423 13.5772C12.7283 13.5773 12.3926 13.2418 12.3925 12.8278C12.3925 12.4138 12.728 12.0781 13.142 12.078C13.556 12.0779 13.8916 12.4135 13.8917 12.8275C13.8913 13.2412 13.5561 13.5766 13.1423 13.5772ZM4.85772 13.5772C4.44372 13.5773 4.10808 13.2418 4.10797 12.8278C4.1079 12.4138 4.44343 12.0781 4.85743 12.078C5.27143 12.0779 5.60707 12.4135 5.60718 12.8275C5.60675 13.2413 5.2715 13.5767 4.85772 13.5772ZM13.4111 9.06232L14.909 6.46792C14.9952 6.3189 14.9442 6.12824 14.7952 6.04208C14.6461 5.95591 14.4554 6.00689 14.3693 6.15591L12.8525 8.78307C11.6925 8.25369 10.3899 7.9589 8.99986 7.9589C7.60985 7.9589 6.30731 8.25411 5.1474 8.78307L3.63069 6.15591C3.54466 6.00685 3.35405 5.95573 3.20498 6.0418C3.05592 6.12782 3.0048 6.31844 3.09087 6.4675L4.58891 9.06232C2.0167 10.4614 0.257344 13.0653 0 16.1419H18C17.7424 13.0653 15.9832 10.4614 13.4111 9.06232Z" fill="white"/>
</svg>
